<svg xmlns="http://www.w3.org/2000/svg" viewBox="0 0 200 200" width="200" height="200">
  <defs>
    <linearGradient id="logoGradient" x1="0%" y1="0%" x2="100%" y2="100%">
      <stop offset="0%" style="stop-color:#3498db;stop-opacity:1" />
      <stop offset="100%" style="stop-color:#2980b9;stop-opacity:1" />
    </linearGradient>
  </defs>
  
  <!-- Background Circle -->
  <circle cx="100" cy="100" r="90" fill="url(#logoGradient)" opacity="0.1"/>
  
  <!-- Network/Connection Symbol -->
  <g transform="translate(100, 100)">
    <!-- Central Node -->
    <circle cx="0" cy="0" r="20" fill="url(#logoGradient)"/>
    <circle cx="0" cy="0" r="12" fill="#ffffff"/>
    
    <!-- Connection Lines -->
    <line x1="0" y1="0" x2="-50" y2="-30" stroke="url(#logoGradient)" stroke-width="4" stroke-linecap="round"/>
    <line x1="0" y1="0" x2="50" y2="-30" stroke="url(#logoGradient)" stroke-width="4" stroke-linecap="round"/>
    <line x1="0" y1="0" x2="0" y2="-50" stroke="url(#logoGradient)" stroke-width="4" stroke-linecap="round"/>
    <line x1="0" y1="0" x2="-50" y2="30" stroke="url(#logoGradient)" stroke-width="4" stroke-linecap="round"/>
    <line x1="0" y1="0" x2="50" y2="30" stroke="url(#logoGradient)" stroke-width="4" stroke-linecap="round"/>
    
    <!-- Outer Nodes -->
    <circle cx="-50" cy="-30" r="8" fill="url(#logoGradient)"/>
    <circle cx="50" cy="-30" r="8" fill="url(#logoGradient)"/>
    <circle cx="0" cy="-50" r="8" fill="url(#logoGradient)"/>
    <circle cx="-50" cy="30" r="8" fill="url(#logoGradient)"/>
    <circle cx="50" cy="30" r="8" fill="url(#logoGradient)"/>
  </g>
  
  <!-- Signal Waves -->
  <g transform="translate(100, 100)">
    <path d="M -30 -60 Q 0 -80 30 -60" stroke="#3498db" stroke-width="3" fill="none" opacity="0.6"/>
    <path d="M -40 -60 Q 0 -90 40 -60" stroke="#3498db" stroke-width="2" fill="none" opacity="0.4"/>
  </g>
</svg>

